<svg width="46" height="56" viewBox="0 0 46 56" fill="none" xmlns="http://www.w3.org/2000/svg">
<path d="M15 41.3332H23M1.66669 6.66658V49.3332C1.66669 50.7477 2.22859 52.1043 3.22878 53.1045C4.22898 54.1047 5.58553 54.6666 7.00002 54.6666H39C40.4145 54.6666 41.7711 54.1047 42.7713 53.1045C43.7715 52.1043 44.3334 50.7477 44.3334 49.3332V18.2453C44.3333 17.5347 44.1912 16.8314 43.9155 16.1766C43.6399 15.5217 43.2361 14.9286 42.728 14.4319L30.888 2.85325C29.8917 1.87901 28.5535 1.33343 27.16 1.33325H7.00002C5.58553 1.33325 4.22898 1.89515 3.22878 2.89535C2.22859 3.89554 1.66669 5.2521 1.66669 6.66658V6.66658ZM15 30.6666H31H15Z" stroke="#FFC93E" stroke-width="2.5" stroke-linecap="round" stroke-linejoin="round"/>
<path d="M28.3334 1.33325V11.9999C28.3334 13.4144 28.8953 14.771 29.8955 15.7712C30.8957 16.7713 32.2522 17.3333 33.6667 17.3333H44.3334" stroke="#FFC93E" stroke-width="2.5" stroke-linejoin="round"/>
</svg>
