<svg width="28" height="18" viewBox="0 0 28 18" fill="none" xmlns="http://www.w3.org/2000/svg">
<path fill-rule="evenodd" clip-rule="evenodd" d="M27.125 9.00021C27.125 8.75157 27.0262 8.51311 26.8504 8.3373C26.6746 8.16148 26.4361 8.06271 26.1875 8.06271H4.07562L9.97625 2.16396C10.1523 1.98792 10.2512 1.74916 10.2512 1.50021C10.2512 1.25125 10.1523 1.01249 9.97625 0.836457C9.80021 0.66042 9.56145 0.561523 9.3125 0.561523C9.06355 0.561523 8.82479 0.66042 8.64875 0.836457L1.14875 8.33646C1.06144 8.42354 0.992176 8.527 0.944914 8.64089C0.897652 8.75479 0.873325 8.87689 0.873325 9.00021C0.873325 9.12352 0.897652 9.24562 0.944914 9.35952C0.992176 9.47342 1.06144 9.57687 1.14875 9.66396L8.64875 17.164C8.82479 17.34 9.06355 17.4389 9.3125 17.4389C9.56145 17.4389 9.80021 17.34 9.97625 17.164C10.1523 16.9879 10.2512 16.7492 10.2512 16.5002C10.2512 16.2513 10.1523 16.0125 9.97625 15.8365L4.07562 9.93771H26.1875C26.4361 9.93771 26.6746 9.83894 26.8504 9.66312C27.0262 9.4873 27.125 9.24885 27.125 9.00021Z" fill="white"/>
</svg>
