<svg width="28" height="18" viewBox="0 0 28 18" fill="none" xmlns="http://www.w3.org/2000/svg">
<path fill-rule="evenodd" clip-rule="evenodd" d="M0.875001 8.99979C0.875001 9.24843 0.973773 9.48689 1.14959 9.6627C1.3254 9.83852 1.56386 9.93729 1.8125 9.93729L23.9244 9.9373L18.0238 15.836C17.8477 16.0121 17.7488 16.2508 17.7488 16.4998C17.7488 16.7487 17.8477 16.9875 18.0238 17.1635C18.1998 17.3396 18.4385 17.4385 18.6875 17.4385C18.9365 17.4385 19.1752 17.3396 19.3512 17.1635L26.8513 9.66355C26.9386 9.57646 27.0078 9.473 27.0551 9.35911C27.1023 9.24521 27.1267 9.12311 27.1267 8.9998C27.1267 8.87648 27.1023 8.75438 27.0551 8.64048C27.0078 8.52659 26.9386 8.42313 26.8513 8.33604L19.3513 0.836044C19.1752 0.660007 18.9365 0.561111 18.6875 0.561111C18.4385 0.561111 18.1998 0.660007 18.0238 0.836044C17.8477 1.01208 17.7488 1.25084 17.7488 1.49979C17.7488 1.74875 17.8477 1.98751 18.0238 2.16354L23.9244 8.0623L1.8125 8.06229C1.56386 8.06229 1.3254 8.16106 1.14959 8.33688C0.973773 8.5127 0.875001 8.75115 0.875001 8.99979Z" fill="white"/>
</svg>
