<svg width="54" height="54" viewBox="0 0 54 54" fill="none" xmlns="http://www.w3.org/2000/svg">
<path d="M13.6667 26.1257V40.3331H27.8741L24.9111 37.3702H16.6296V29.0887L13.6667 26.1257Z" fill="#FFC93E"/>
<path d="M51.9926 48.1703L47.7407 43.8592V47.7407H6.25924V41.5925H9.2222V39.2222H6.25924V29.3703H9.2222V27H6.25924V17.5185H9.2222V15.1481H6.25924V6.86662L29.8741 30.3481V26.1703L5.82961 2.2444C5.62239 2.03547 5.35765 1.89298 5.06913 1.8351C4.78062 1.77721 4.4814 1.80656 4.20964 1.9194C3.93787 2.03224 3.70586 2.22346 3.54319 2.46867C3.38052 2.71389 3.29456 3.00199 3.29627 3.29625V49.2222C3.29627 49.6151 3.45236 49.9919 3.73019 50.2697C4.00802 50.5476 4.38484 50.7037 4.77776 50.7037H50.9407C51.235 50.7054 51.5231 50.6194 51.7683 50.4567C52.0135 50.2941 52.2047 50.0621 52.3176 49.7903C52.4304 49.5185 52.4597 49.2193 52.4019 48.9308C52.344 48.6423 52.2015 48.3775 51.9926 48.1703Z" fill="#FFC93E"/>
<path d="M35.8889 44.7776H41.8148C42.6006 44.7776 43.3543 44.4655 43.9099 43.9098C44.4656 43.3541 44.7778 42.6005 44.7778 41.8147V13.2221L41.3703 6.9554C41.1068 6.49884 40.7263 6.12085 40.2679 5.86043C39.8096 5.60001 39.29 5.46658 38.7629 5.47392C38.2239 5.4782 37.6962 5.62945 37.2368 5.91139C36.7773 6.19333 36.4035 6.59527 36.1555 7.07392L32.9259 13.2517V41.8147C32.9259 42.6005 33.2381 43.3541 33.7937 43.9098C34.3494 44.4655 35.103 44.7776 35.8889 44.7776ZM35.8889 13.9628L38.7629 8.37762L41.8148 13.9776V35.8887H35.8889V13.9628ZM35.8889 38.3035H41.8148V41.9184H35.8889V38.3035Z" fill="#FFC93E"/>
</svg>
